<mxfile host="app.diagrams.net" modified="2024-07-03T16:59:01.194Z" agent="Mozilla/5.0 (Macintosh; Intel Mac OS X 10.15; rv:127.0) Gecko/20100101 Firefox/127.0" version="24.2.2" etag="m0CE4yf8Pl97S-qMFXuO" type="github">
  <diagram name="Page-1" id="J5t_c3hjlEuTDkPJopsG">
    <mxGraphModel>
      <root>
        <mxCell id="0" />
        <mxCell id="1" parent="0" />
      </root>
    </mxGraphModel>
  </diagram>
</mxfile>
